# Blender v2.79 (sub 0) OBJ File: 'kittin002.blend'
# www.blender.org
mtllib kittin002.mtl
o 立方体.001
v -3.000000 0.000000 0.500000
v -3.000000 14.000000 0.500000
v -3.000000 0.000000 -0.500000
v -3.000000 14.000000 -0.500000
v 2.400000 0.000000 0.500000
v 2.400000 14.000000 0.500000
v 2.400000 0.000000 -0.500000
v 2.400000 14.000000 -0.500000
vt 0.666567 0.408418
vt 0.666567 0.082508
vt 0.992477 0.082508
vt 0.992477 0.408418
vt 0.529528 0.968519
vt 0.529528 0.528877
vt 0.969170 0.528877
vt 0.969170 0.968519
vt 0.667450 0.085057
vt 0.667451 0.410968
vt 0.341540 0.410968
vt 0.341540 0.085057
vt 0.464853 0.529288
vt 0.464853 0.974618
vt 0.019522 0.974618
vt 0.019522 0.529288
vt 0.662989 0.407781
vt 0.337079 0.407781
vt 0.337079 0.081871
vt 0.662989 0.081871
vt 0.336688 0.407781
vt 0.010778 0.407781
vt 0.010778 0.081871
vt 0.336688 0.081871
vn -1.0000 0.0000 0.0000
vn 0.0000 0.0000 -1.0000
vn 1.0000 0.0000 0.0000
vn 0.0000 0.0000 1.0000
vn 0.0000 -1.0000 0.0000
vn 0.0000 1.0000 0.0000
usemtl マテリアル
s off
f 1/1/1 2/2/1 4/3/1 3/4/1
f 3/5/2 4/6/2 8/7/2 7/8/2
f 7/9/3 8/10/3 6/11/3 5/12/3
f 5/13/4 6/14/4 2/15/4 1/16/4
f 3/17/5 7/18/5 5/19/5 1/20/5
f 8/21/6 4/22/6 2/23/6 6/24/6
