# Blender v2.79 (sub 0) OBJ File: 'kittin001.blend'
# www.blender.org
mtllib kittin001.mtl
o 立方体
v -0.500000 0.000000 5.000000
v -0.500000 8.000000 5.000000
v -0.500000 0.000000 -5.000000
v -0.500000 8.000000 -5.000000
v 0.500000 0.000000 5.000000
v 0.500000 8.000000 5.000000
v 0.500000 0.000000 -5.000000
v 0.500000 8.000000 -5.000000
v 0.500000 4.000000 -5.000000
v 0.500000 4.000000 5.000000
v 0.500000 6.000000 5.000000
v 0.500000 6.000000 -5.000000
v 0.500000 2.000000 -5.000000
v 0.500000 2.000000 5.000000
v 0.500000 0.000000 0.000000
v 0.500000 7.000000 0.000000
v 0.500000 1.000000 0.000000
v 0.500000 8.000000 0.000000
v 0.500000 4.000000 3.750000
v 0.500000 1.000000 3.750000
v 0.500000 7.000000 3.750000
v 0.500000 8.000000 2.500000
v 0.500000 0.000000 2.500000
v 0.500000 8.000000 -2.500000
v 0.500000 7.000000 -3.750000
v 0.500000 1.000000 -3.750000
v 0.500000 0.000000 -2.500000
v 0.500000 4.000000 -3.750000
v -0.034055 7.000000 3.750000
v -0.034055 7.000000 0.000000
v -0.034055 1.000000 3.750000
v -0.034055 1.000000 0.000000
v -0.034055 4.000000 3.750000
v -0.034055 4.000000 0.000000
v -0.034055 7.000000 -3.750000
v -0.034055 1.000000 -3.750000
v -0.034055 4.000000 -3.750000
vt 0.076564 0.385807
vt 0.076564 0.061806
vt 0.400565 0.061806
vt 0.400565 0.385807
vt 0.075729 0.391098
vt 0.075729 0.068502
vt 0.398325 0.068502
vt 0.403955 0.391052
vt 0.398326 0.391196
vt 0.398323 0.391098
vt 0.398325 0.391098
vt 0.451640 0.525088
vt 0.451640 0.627765
vt 0.400302 0.576426
vt 0.348963 0.525088
vt 0.403867 0.066400
vt 0.409497 0.388950
vt 0.403868 0.389094
vt 0.403865 0.388995
vt 0.403867 0.388995
vt 0.081271 0.388995
vt 0.081271 0.066400
vt 0.076431 0.386850
vt 0.076431 0.064254
vt 0.398981 0.058624
vt 0.399125 0.064252
vt 0.399026 0.064256
vt 0.399026 0.064254
vt 0.399026 0.386850
vt 0.396690 0.389575
vt 0.073394 0.389575
vt 0.073394 0.066280
vt 0.396690 0.066280
vt 0.400922 0.227880
vt 0.398102 0.227977
vt 0.398101 0.227927
vt 0.040932 0.730442
vt 0.092270 0.730442
vt 0.092270 0.884458
vt 0.040932 0.833119
vt 0.143609 0.935796
vt 0.040932 0.935796
vt 0.040932 0.627765
vt 0.092270 0.576426
vt 0.714171 0.333875
vt 0.592670 0.333875
vt 0.592670 0.160841
vt 0.714171 0.160841
vt 0.246286 0.935796
vt 0.246286 0.884458
vt 0.400302 0.884458
vt 0.348963 0.935796
vt 0.246286 0.525088
vt 0.246286 0.576426
vt 0.143609 0.525088
vt 0.471170 0.333875
vt 0.471170 0.160841
vt 0.773367 0.360873
vt 0.773367 0.239372
vt 0.946401 0.239372
vt 0.946401 0.360873
vt 0.040932 0.525088
vt 0.947481 0.110380
vt 0.947481 0.231880
vt 0.774447 0.231880
vt 0.774447 0.110380
vt 0.451640 0.833119
vt 0.451640 0.935796
vt 0.400302 0.730442
vt 0.451640 0.730442
vt 0.736524 0.958613
vt 0.736524 0.729967
vt 0.965171 0.729967
vt 0.965171 0.958613
vt 0.736524 0.501320
vt 0.965171 0.501320
vt 0.507878 0.958613
vt 0.507878 0.729967
vt 0.507878 0.501320
vt 0.773367 0.117872
vt 0.946401 0.117872
vt 0.947481 0.353380
vt 0.774447 0.353380
vt 0.467264 0.162602
vt 0.588764 0.162602
vt 0.588764 0.335636
vt 0.467264 0.335636
vt 0.710264 0.162602
vt 0.710264 0.335636
vn -1.0000 0.0000 0.0000
vn 0.0000 0.0000 -1.0000
vn 1.0000 0.0000 0.0000
vn 0.0000 0.0000 1.0000
vn 0.0000 -1.0000 0.0000
vn 0.0000 1.0000 0.0000
usemtl マテリアル
s off
f 1/1/1 2/2/1 4/3/1 3/4/1
f 3/5/2 4/6/2 8/7/2 12/8/2 9/9/2 13/10/2 7/11/2
f 7/12/3 13/13/3 26/14/3 27/15/3
f 5/16/4 14/17/4 10/18/4 11/19/4 6/20/4 2/21/4 1/22/4
f 3/23/5 7/24/5 27/25/5 15/26/5 23/27/5 5/28/5 1/29/5
f 8/30/6 4/31/6 2/32/6 6/33/6 22/34/6 18/35/6 24/36/6
f 10/37/3 19/38/3 21/39/3 11/40/3
f 11/40/3 21/39/3 22/41/3 6/42/3
f 14/43/3 20/44/3 19/38/3 10/37/3
f 25/45/5 16/46/5 30/47/5 35/48/5
f 18/49/3 16/50/3 25/51/3 24/52/3
f 15/53/3 17/54/3 20/44/3 23/55/3
f 16/46/5 21/56/5 29/57/5 30/47/5
f 21/58/2 19/59/2 33/60/2 29/61/2
f 22/41/3 21/39/3 16/50/3 18/49/3
f 23/55/3 20/44/3 14/43/3 5/62/3
f 26/63/4 28/64/4 37/65/4 36/66/4
f 24/52/3 25/51/3 12/67/3 8/68/3
f 27/15/3 26/14/3 17/54/3 15/53/3
f 28/69/3 26/14/3 13/13/3 9/70/3
f 25/51/3 28/69/3 9/70/3 12/67/3
f 30/71/3 34/72/3 37/73/3 35/74/3
f 34/72/3 32/75/3 36/76/3 37/73/3
f 29/77/3 33/78/3 34/72/3 30/71/3
f 33/78/3 31/79/3 32/75/3 34/72/3
f 19/59/2 20/80/2 31/81/2 33/60/2
f 28/64/4 25/82/4 35/83/4 37/65/4
f 20/84/6 17/85/6 32/86/6 31/87/6
f 17/85/6 26/88/6 36/89/6 32/86/6
