# Blender v2.79 (sub 0) OBJ File: 'seisaku_knife.blend'
# www.blender.org
mtllib seisaku_knife.mtl
o 立方体
v -3.313741 -0.122915 0.199254
v -3.313741 0.122915 0.199254
v -3.277272 -0.112833 -0.201735
v -3.277272 0.112833 -0.201735
v 3.535735 -0.050971 0.228561
v 3.535735 0.050971 0.228561
v 3.467507 -0.082638 -0.254418
v 3.467507 0.082638 -0.254418
v -1.139463 0.249929 1.020878
v -1.139463 -0.268001 -0.875204
v -1.139463 -0.249929 1.020878
v -1.139463 0.268001 -0.875204
v -0.971211 -0.249929 1.020878
v -0.971211 -0.268001 -0.875204
v -0.971211 0.249929 1.020878
v -0.971211 0.268001 -0.875204
v -0.969303 0.101555 0.647968
v -0.969303 -0.101119 -0.602218
v -0.969303 -0.101555 0.647968
v -0.969303 0.101119 -0.602218
v 1.412933 -0.122287 -0.203767
v -1.137124 0.107730 0.177203
v -1.137124 -0.107730 -0.173297
v -1.137124 -0.107730 0.177203
v -1.137124 0.107730 -0.173297
v -3.032168 0.102240 0.171140
v -3.032167 -0.102240 0.171140
v -3.032168 -0.102240 -0.167234
v -3.032167 0.102240 -0.167234
v -1.137124 0.000000 -0.254723
v -3.032168 0.000000 -0.250054
v -3.306595 0.000000 -0.282728
v -1.139463 0.000000 -0.948565
v -1.139463 0.347177 0.000000
v -1.137124 0.156361 0.001953
v -3.269708 0.180164 -0.005035
v -3.032168 0.147430 0.001953
v -3.376438 0.000000 0.494932
v -3.032168 0.000000 0.253960
v -1.139463 0.000000 1.201510
v -1.137124 0.000000 0.258629
v -1.137124 -0.156361 0.001953
v -3.269708 -0.180164 -0.005035
v -3.032168 -0.147430 0.001953
v -1.139463 -0.347177 0.000000
v -3.402937 0.000000 -0.026506
v -0.971211 0.000000 1.201510
v -0.969303 0.000000 0.952714
v 3.352119 0.000000 0.457197
v -0.971211 0.000000 -0.948565
v 3.708091 0.000000 -0.146295
v -0.969303 0.000000 -0.602218
v 3.713944 0.071290 -0.001650
v -0.969303 0.194028 0.000000
v -0.971211 0.347177 0.000000
v 3.713944 -0.071290 -0.001650
v -0.971211 -0.347177 0.000000
v -0.969303 -0.194028 0.000000
v 3.972748 0.000000 -0.004097
v 3.709014 -0.000000 0.194239
v 3.467508 0.000000 -0.254418
vt 0.947800 0.827842
vt 0.876973 0.846941
vt 0.876628 0.778831
vt 0.950175 0.753464
vt 0.876355 0.725062
vt 0.876230 0.700531
vt 0.965597 0.732792
vt 0.110505 0.952957
vt 0.072449 0.966175
vt 0.056108 0.951191
vt 0.082674 0.931162
vt 0.059274 0.908596
vt 0.024609 0.892357
vt 0.017303 0.686573
vt 0.076098 0.697128
vt 0.994109 0.793326
vt 0.961070 0.791950
vt 0.661130 0.726970
vt 0.769821 0.896398
vt 0.689466 0.929435
vt 0.626606 0.725342
vt 0.194344 0.647580
vt 0.138014 0.559477
vt 0.145442 0.555879
vt 0.198099 0.641048
vt 0.868048 0.047935
vt 0.913793 0.190120
vt 0.825221 0.190225
vt 0.802544 0.165880
vt 0.636029 0.048922
vt 0.751931 0.023236
vt 0.752491 0.154736
vt 0.702535 0.166305
vt 0.416645 0.571972
vt 0.309975 0.657074
vt 0.307323 0.648100
vt 0.408630 0.569035
vt 0.327776 0.390813
vt 0.194062 0.386973
vt 0.191366 0.379589
vt 0.331339 0.382896
vt 0.394872 0.467201
vt 0.401681 0.464132
vt 0.369689 0.043644
vt 0.414086 0.187934
vt 0.342187 0.187369
vt 0.299603 0.095590
vt 0.376068 0.311106
vt 0.249743 0.320982
vt 0.250240 0.272422
vt 0.297679 0.272006
vt 0.416426 0.953742
vt 0.330561 0.935894
vt 0.392403 0.742089
vt 0.419205 0.756176
vt 0.552875 0.947538
vt 0.510973 0.947784
vt 0.509827 0.752647
vt 0.544070 0.752446
vt 0.252357 0.052187
vt 0.252688 0.017118
vt 0.204307 0.094698
vt 0.160032 0.185675
vt 0.088133 0.184890
vt 0.135207 0.041451
vt 0.650330 0.381547
vt 0.750853 0.357364
vt 0.750868 0.502608
vt 0.741625 0.510462
vt 0.680066 0.190843
vt 0.591496 0.191492
vt 0.702743 0.215188
vt 0.752796 0.226332
vt 0.753208 0.323099
vt 0.628766 0.313397
vt 0.649737 0.675077
vt 0.551084 0.528112
vt 0.737005 0.528487
vt 0.741553 0.546532
vt 0.961442 0.854592
vt 0.877342 0.919539
vt 0.792587 0.855449
vt 0.759300 0.794517
vt 0.792323 0.792806
vt 0.805957 0.828562
vt 0.750763 0.554423
vt 0.750162 0.699666
vt 0.760057 0.546877
vt 0.764034 0.528542
vt 0.950403 0.528918
vt 0.850830 0.675960
vt 0.760131 0.510191
vt 0.851424 0.381475
vt 0.802752 0.214763
vt 0.877562 0.312338
vt 0.802827 0.754211
vt 0.787196 0.733697
vt 0.229604 0.693118
vt 0.216009 0.886312
vt 0.182893 0.900443
vt 0.173993 0.701118
vt 0.168628 0.954136
vt 0.156229 0.965499
vt 0.133288 0.940466
vt 0.102754 0.458460
vt 0.111068 0.461202
vt 0.123815 0.308747
vt 0.202822 0.271194
vt 0.599144 0.947259
vt 0.598323 0.739845
vt 0.254336 0.903652
vt 0.359502 0.743308
vt 0.042628 0.925928
vt 0.184477 0.940585
vt 0.160160 0.920890
vt 0.197974 0.917279
vt 0.475583 0.752848
vt 0.469070 0.948030
vt 0.085203 0.978707
vn -0.8444 -0.5340 0.0429
vn 0.1152 -0.5919 -0.7977
vn 0.3476 -0.8354 -0.4258
vn 0.0351 -0.9576 0.2859
vn 0.1105 -0.9493 -0.2942
vn 0.0192 0.9948 -0.1004
vn 0.0000 -0.2640 -0.9645
vn -0.9999 -0.0107 -0.0013
vn -1.0000 0.0018 -0.0025
vn 0.0000 -0.9955 0.0948
vn 0.0000 0.9955 0.0948
vn 0.0000 -0.5858 0.8105
vn 0.9999 -0.0111 0.0013
vn 1.0000 -0.0012 -0.0058
vn 0.0248 -0.9909 0.1323
vn 0.0781 -0.0000 -0.9969
vn 1.0000 -0.0064 0.0046
vn 0.9999 0.0111 0.0013
vn -0.0041 0.9648 0.2628
vn -0.9999 0.0107 -0.0013
vn -1.0000 0.0013 0.0032
vn -0.0031 -0.6161 0.7876
vn 0.2527 -0.8126 0.5252
vn 0.1095 0.9552 0.2749
vn -0.0041 -0.9648 0.2628
vn -0.0031 -0.6161 -0.7876
vn -0.0031 0.6161 -0.7876
vn -1.0000 -0.0013 0.0032
vn 0.1152 0.5919 -0.7977
vn -0.0041 0.9648 -0.2628
vn 0.1105 0.9493 -0.2942
vn -0.9999 -0.0107 0.0013
vn -0.0031 0.6161 0.7876
vn 0.2527 0.8126 0.5252
vn -1.0000 -0.0018 -0.0025
vn -0.9999 0.0107 0.0013
vn 0.1095 -0.9552 0.2749
vn -0.0041 -0.9648 -0.2628
vn -0.8386 0.4443 -0.3153
vn -0.8037 0.5951 -0.0065
vn -0.7816 -0.5988 -0.1749
vn -0.7816 0.5988 -0.1749
vn -0.8037 -0.5951 -0.0065
vn -0.8444 0.5340 0.0429
vn -0.8386 -0.4443 -0.3153
vn 1.0000 0.0064 0.0046
vn 0.0351 0.9576 0.2859
vn 0.0000 0.5858 0.8105
vn 0.4099 0.0000 -0.9121
vn 0.0000 0.2640 -0.9645
vn 1.0000 0.0012 -0.0058
vn 0.0248 0.9909 0.1323
vn 0.0000 0.9959 -0.0901
vn 0.9999 0.0108 -0.0013
vn 0.9999 -0.0108 -0.0013
vn 0.0000 -0.9959 -0.0901
vn 0.0192 -0.9948 -0.1004
vn 0.3330 -0.8276 0.4519
vn 0.2828 -0.8990 0.3343
vn 0.3476 0.8354 -0.4258
vn 0.3330 0.8276 0.4519
vn 0.2828 0.8990 0.3343
usemtl knife_UV
s off
f 1/1/1 38/2/1 46/3/1
f 3/4/2 32/5/2 31/6/2 28/7/2
f 7/8/3 51/9/3 59/10/3 56/11/3
f 5/12/4 49/13/4 48/14/4 19/15/4
f 3/4/5 28/7/5 44/16/5 43/17/5
f 8/18/6 20/19/6 54/20/6 53/21/6
f 10/22/7 33/23/7 50/24/7 14/25/7
f 9/26/8 34/27/8 35/28/8 22/29/8
f 11/30/9 40/31/9 41/32/9 24/33/9
f 11/34/10 45/35/10 57/36/10 13/37/10
f 15/38/11 55/39/11 34/40/11 9/41/11
f 13/37/12 47/42/12 40/43/12 11/34/12
f 13/44/13 57/45/13 58/46/13 19/47/13
f 14/48/14 50/49/14 52/50/14 18/51/14
f 19/52/15 58/53/15 56/54/15 5/55/15
f 18/56/16 52/57/16 61/58/16 7/59/16
f 19/47/17 48/60/17 47/61/17 13/44/17
f 17/62/18 54/63/18 55/64/18 15/65/18
f 22/66/19 35/67/19 37/68/19 26/69/19
f 24/33/20 42/70/20 45/71/20 11/30/20
f 23/72/21 30/73/21 33/74/21 10/75/21
f 24/76/22 41/77/22 39/78/22 27/79/22
f 27/80/23 39/81/23 38/2/23 1/1/23
f 26/82/24 37/83/24 36/84/24 2/85/24
f 27/79/25 44/86/25 42/87/25 24/76/25
f 28/88/26 31/89/26 30/90/26 23/91/26
f 30/90/27 31/89/27 29/92/27 25/93/27
f 33/74/28 30/73/28 25/94/28 12/95/28
f 31/6/29 32/5/29 4/96/29 29/97/29
f 37/68/30 35/67/30 25/93/30 29/92/30
f 36/84/31 37/83/31 29/97/31 4/96/31
f 35/28/32 34/27/32 12/95/32 25/94/32
f 39/78/33 41/77/33 22/66/33 26/69/33
f 38/2/34 39/81/34 26/82/34 2/85/34
f 41/32/35 40/31/35 9/26/35 22/29/35
f 45/71/36 42/70/36 23/72/36 10/75/36
f 43/17/37 44/16/37 27/80/37 1/1/37
f 42/87/38 44/86/38 28/88/38 23/91/38
f 32/5/39 46/3/39 4/96/39
f 36/84/40 46/3/40 2/85/40
f 43/17/41 46/3/41 3/4/41
f 4/96/42 46/3/42 36/84/42
f 46/3/43 43/17/43 1/1/43
f 2/85/44 46/3/44 38/2/44
f 3/4/45 46/3/45 32/5/45
f 47/61/46 48/60/46 17/62/46 15/65/46
f 48/98/47 49/99/47 6/100/47 17/101/47
f 40/43/48 47/42/48 15/38/48 9/41/48
f 51/102/49 61/103/49 8/104/49
f 50/24/50 33/23/50 12/105/50 16/106/50
f 52/50/51 50/49/51 16/107/51 20/108/51
f 53/21/52 54/20/52 17/109/52 6/110/52
f 34/40/53 55/39/53 16/106/53 12/105/53
f 55/64/54 54/63/54 20/108/54 16/107/54
f 58/46/55 57/45/55 14/48/55 18/51/55
f 57/36/56 45/35/56 10/22/56 14/25/56
f 56/54/57 58/53/57 18/111/57 7/112/57
f 5/12/58 60/113/58 49/13/58
f 56/11/59 59/10/59 60/113/59 5/12/59
f 59/114/60 51/102/60 8/104/60 53/115/60
f 49/99/61 60/116/61 6/100/61
f 60/116/62 59/114/62 53/115/62 6/100/62
f 8/117/16 61/58/16 52/57/16 20/118/16
f 7/8/49 61/119/49 51/9/49
